<svg xmlns="http://www.w3.org/2000/svg" xmlns:xlink="http://www.w3.org/1999/xlink" width="500" zoomAndPan="magnify" viewBox="0 0 375 374.999991" height="500" preserveAspectRatio="xMidYMid meet" version="1.0"><defs><g/></defs><rect x="-37.5" width="450" fill="#ffffff" y="-37.499999" height="449.999989" fill-opacity="1"/><rect x="-37.5" width="450" fill="#ecece5" y="-37.499999" height="449.999989" fill-opacity="1"/><g fill="#000000" fill-opacity="1"><g transform="translate(65.546879, 245.856736)"><g><path d="M 37.8125 -26.234375 C 37.8125 -22.609375 38.476562 -19.179688 39.8125 -15.953125 C 41.15625 -12.722656 43.007812 -9.925781 45.375 -7.5625 C 47.738281 -5.195312 50.492188 -3.34375 53.640625 -2 C 56.796875 -0.664062 60.1875 0 63.8125 0 L 5.90625 0 C 9.375 -0.46875 12.722656 -1.566406 15.953125 -3.296875 C 19.179688 -5.035156 22.210938 -7.203125 25.046875 -9.796875 C 27.890625 -12.398438 30.410156 -15.273438 32.609375 -18.421875 C 34.816406 -21.578125 36.550781 -24.8125 37.8125 -28.125 Z M 83.1875 0 C 86.5 0 89.335938 -1.375 91.703125 -4.125 C 94.066406 -6.882812 95.25 -10 95.25 -13.46875 C 95.25 -14.101562 95.25 -14.734375 95.25 -15.359375 C 95.25 -15.992188 95.09375 -16.625 94.78125 -17.25 L 87.921875 -37.109375 L 87.453125 -38.53125 L 70.671875 -86.96875 C 69.566406 -89.65625 67.597656 -91 64.765625 -91 C 62.078125 -91 60.1875 -89.65625 59.09375 -86.96875 L 87.453125 -165.4375 L 113.6875 -90.046875 C 114.78125 -86.890625 116.035156 -83.144531 117.453125 -78.8125 C 118.878906 -74.488281 120.144531 -70.75 121.25 -67.59375 L 140.625 -12.296875 C 141.726562 -9.140625 143.65625 -6.300781 146.40625 -3.78125 C 149.164062 -1.257812 152.359375 0 155.984375 0 Z M 83.1875 0 "/></g></g></g><g fill="#000000" fill-opacity="1"><g transform="translate(227.433877, 245.856736)"><g><path d="M 61.6875 -15.59375 C 61.6875 -11.65625 63.0625 -8.070312 65.8125 -4.84375 C 68.570312 -1.613281 72.003906 0 76.109375 0 L 5.90625 0 C 9.84375 0 13.191406 -1.613281 15.953125 -4.84375 C 18.710938 -8.070312 20.09375 -11.65625 20.09375 -15.59375 L 20.09375 -149.84375 C 20.09375 -153.78125 18.710938 -157.363281 15.953125 -160.59375 C 13.191406 -163.820312 9.84375 -165.4375 5.90625 -165.4375 L 76.109375 -165.4375 C 72.003906 -165.4375 68.570312 -163.820312 65.8125 -160.59375 C 63.0625 -157.363281 61.6875 -153.78125 61.6875 -149.84375 Z M 61.6875 -15.59375 "/></g></g></g><g fill="#000000" fill-opacity="1"><g transform="translate(226.425122, 262.017552)"><g><path d="M -0.078125 -0.453125 C 0.148438 -0.453125 0.332031 -0.503906 0.46875 -0.609375 C 0.601562 -0.710938 0.710938 -0.847656 0.796875 -1.015625 C 0.878906 -1.179688 0.976562 -1.429688 1.09375 -1.765625 L 1.234375 -2.140625 L 4.03125 -9.765625 L 4.359375 -9.765625 L 7.390625 -2.03125 C 7.484375 -1.789062 7.566406 -1.523438 7.640625 -1.234375 C 7.710938 -0.953125 7.742188 -0.722656 7.734375 -0.546875 L 8.65625 -0.59375 L 8.65625 0 L 5.546875 0 L 5.546875 -0.453125 C 6.085938 -0.460938 6.359375 -0.675781 6.359375 -1.09375 C 6.359375 -1.269531 6.3125 -1.484375 6.21875 -1.734375 L 5.75 -3.015625 L 2.21875 -2.9375 C 2.082031 -2.5625 1.921875 -2.078125 1.734375 -1.484375 C 1.648438 -1.179688 1.539062 -0.867188 1.40625 -0.546875 L 2.453125 -0.59375 L 2.453125 0 L -0.078125 0 Z M 5.546875 -3.515625 L 4.59375 -6.109375 L 3.984375 -7.78125 L 3.953125 -7.78125 L 3.375 -6.25 L 2.640625 -4.1875 L 2.421875 -3.515625 Z M 5.546875 -3.515625 "/></g></g></g><g fill="#000000" fill-opacity="1"><g transform="translate(240.023477, 262.017552)"><g><path d="M 0.75 -0.453125 C 1.0625 -0.460938 1.285156 -0.535156 1.421875 -0.671875 C 1.554688 -0.804688 1.632812 -0.960938 1.65625 -1.140625 C 1.675781 -1.328125 1.6875 -1.65625 1.6875 -2.125 L 1.6875 -7.984375 C 1.6875 -8.359375 1.695312 -8.6875 1.71875 -8.96875 L 0.75 -8.90625 L 0.75 -9.5 L 3.796875 -9.5 L 3.796875 -9.0625 C 3.484375 -9.050781 3.257812 -8.976562 3.125 -8.84375 C 2.988281 -8.707031 2.910156 -8.546875 2.890625 -8.359375 C 2.867188 -8.171875 2.859375 -7.847656 2.859375 -7.390625 L 2.859375 -5.15625 L 3.890625 -5.15625 L 5.578125 -7.828125 C 5.910156 -8.335938 6.234375 -8.71875 6.546875 -8.96875 L 5.71875 -8.953125 L 5.71875 -9.5 L 8.640625 -9.5 L 8.640625 -9.0625 C 8.222656 -9.019531 7.867188 -8.945312 7.578125 -8.84375 C 7.296875 -8.75 7.019531 -8.570312 6.75 -8.3125 C 6.476562 -8.0625 6.191406 -7.695312 5.890625 -7.21875 L 4.5625 -5.109375 C 4.757812 -4.984375 4.929688 -4.84375 5.078125 -4.6875 C 5.222656 -4.539062 5.351562 -4.390625 5.46875 -4.234375 C 5.582031 -4.085938 5.65625 -3.992188 5.6875 -3.953125 L 7.203125 -1.921875 C 7.546875 -1.484375 7.828125 -1.160156 8.046875 -0.953125 C 8.265625 -0.742188 8.453125 -0.609375 8.609375 -0.546875 C 8.773438 -0.484375 8.972656 -0.453125 9.203125 -0.453125 L 9.203125 0 L 7.546875 0 C 7.316406 0 6.859375 -0.441406 6.171875 -1.328125 L 4.546875 -3.53125 C 4.328125 -3.8125 4.140625 -4.039062 3.984375 -4.21875 C 3.828125 -4.40625 3.675781 -4.539062 3.53125 -4.625 L 2.859375 -4.609375 L 2.859375 -1.609375 C 2.859375 -1.128906 2.847656 -0.773438 2.828125 -0.546875 L 3.796875 -0.59375 L 3.796875 0 L 0.75 0 Z M 0.75 -0.453125 "/></g></g></g><g fill="#000000" fill-opacity="1"><g transform="translate(254.396002, 262.017552)"><g><path d="M 3.921875 0.21875 C 3.492188 0.21875 3.066406 0.15625 2.640625 0.03125 C 2.210938 -0.0820312 1.832031 -0.25 1.5 -0.46875 L 1.578125 0.109375 L 0.875 0.109375 L 0.78125 -2.78125 L 1.3125 -2.78125 C 1.363281 -2 1.628906 -1.398438 2.109375 -0.984375 C 2.597656 -0.566406 3.222656 -0.359375 3.984375 -0.359375 C 4.535156 -0.359375 5 -0.507812 5.375 -0.8125 C 5.75 -1.113281 5.9375 -1.523438 5.9375 -2.046875 C 5.9375 -2.441406 5.828125 -2.773438 5.609375 -3.046875 C 5.398438 -3.328125 5.140625 -3.554688 4.828125 -3.734375 C 4.515625 -3.921875 4.09375 -4.140625 3.5625 -4.390625 C 2.945312 -4.671875 2.460938 -4.921875 2.109375 -5.140625 C 1.753906 -5.359375 1.445312 -5.644531 1.1875 -6 C 0.9375 -6.363281 0.8125 -6.804688 0.8125 -7.328125 C 0.8125 -7.691406 0.894531 -8.054688 1.0625 -8.421875 C 1.226562 -8.785156 1.515625 -9.09375 1.921875 -9.34375 C 2.335938 -9.59375 2.890625 -9.71875 3.578125 -9.71875 C 3.984375 -9.71875 4.390625 -9.664062 4.796875 -9.5625 C 5.210938 -9.457031 5.59375 -9.28125 5.9375 -9.03125 L 5.875 -9.609375 L 6.578125 -9.609375 L 6.578125 -6.625 L 6.078125 -6.625 C 6.035156 -7.34375 5.804688 -7.945312 5.390625 -8.4375 C 4.984375 -8.925781 4.410156 -9.171875 3.671875 -9.171875 C 3.117188 -9.171875 2.6875 -9.019531 2.375 -8.71875 C 2.070312 -8.414062 1.921875 -8.039062 1.921875 -7.59375 C 1.921875 -7.226562 2.023438 -6.914062 2.234375 -6.65625 C 2.441406 -6.394531 2.695312 -6.175781 3 -6 C 3.300781 -5.832031 3.722656 -5.617188 4.265625 -5.359375 C 4.878906 -5.078125 5.375 -4.820312 5.75 -4.59375 C 6.125 -4.375 6.441406 -4.078125 6.703125 -3.703125 C 6.960938 -3.335938 7.09375 -2.890625 7.09375 -2.359375 C 7.09375 -1.859375 6.96875 -1.410156 6.71875 -1.015625 C 6.476562 -0.628906 6.117188 -0.328125 5.640625 -0.109375 C 5.160156 0.109375 4.585938 0.21875 3.921875 0.21875 Z M 3.921875 0.21875 "/></g></g></g><g fill="#000000" fill-opacity="1"><g transform="translate(267.19302, 262.017552)"><g><path d="M 0.75 -0.453125 C 1.0625 -0.460938 1.285156 -0.535156 1.421875 -0.671875 C 1.554688 -0.804688 1.632812 -0.960938 1.65625 -1.140625 C 1.675781 -1.328125 1.6875 -1.65625 1.6875 -2.125 L 1.6875 -7.984375 C 1.6875 -8.359375 1.695312 -8.6875 1.71875 -8.96875 L 0.75 -8.90625 L 0.75 -9.5 L 3.796875 -9.5 L 3.796875 -9.0625 C 3.484375 -9.050781 3.257812 -8.976562 3.125 -8.84375 C 2.988281 -8.707031 2.910156 -8.546875 2.890625 -8.359375 C 2.867188 -8.171875 2.859375 -7.847656 2.859375 -7.390625 L 2.859375 -5.125 L 7.71875 -5.125 L 7.71875 -7.984375 C 7.71875 -8.359375 7.734375 -8.6875 7.765625 -8.96875 L 6.796875 -8.90625 L 6.796875 -9.5 L 9.84375 -9.5 L 9.84375 -9.0625 C 9.53125 -9.050781 9.304688 -8.976562 9.171875 -8.84375 C 9.035156 -8.707031 8.957031 -8.546875 8.9375 -8.359375 C 8.914062 -8.171875 8.90625 -7.847656 8.90625 -7.390625 L 8.90625 -1.609375 C 8.90625 -1.128906 8.890625 -0.773438 8.859375 -0.546875 L 9.84375 -0.59375 L 9.84375 0 L 6.796875 0 L 6.796875 -0.453125 C 7.109375 -0.460938 7.332031 -0.535156 7.46875 -0.671875 C 7.601562 -0.804688 7.675781 -0.960938 7.6875 -1.140625 C 7.707031 -1.328125 7.71875 -1.65625 7.71875 -2.125 L 7.71875 -4.59375 L 2.859375 -4.53125 L 2.859375 -1.609375 C 2.859375 -1.128906 2.847656 -0.773438 2.828125 -0.546875 L 3.796875 -0.59375 L 3.796875 0 L 0.75 0 Z M 0.75 -0.453125 "/></g></g></g><g fill="#000000" fill-opacity="1"><g transform="translate(282.883, 262.017552)"><g><path d="M -0.078125 -0.453125 C 0.148438 -0.453125 0.332031 -0.503906 0.46875 -0.609375 C 0.601562 -0.710938 0.710938 -0.847656 0.796875 -1.015625 C 0.878906 -1.179688 0.976562 -1.429688 1.09375 -1.765625 L 1.234375 -2.140625 L 4.03125 -9.765625 L 4.359375 -9.765625 L 7.390625 -2.03125 C 7.484375 -1.789062 7.566406 -1.523438 7.640625 -1.234375 C 7.710938 -0.953125 7.742188 -0.722656 7.734375 -0.546875 L 8.65625 -0.59375 L 8.65625 0 L 5.546875 0 L 5.546875 -0.453125 C 6.085938 -0.460938 6.359375 -0.675781 6.359375 -1.09375 C 6.359375 -1.269531 6.3125 -1.484375 6.21875 -1.734375 L 5.75 -3.015625 L 2.21875 -2.9375 C 2.082031 -2.5625 1.921875 -2.078125 1.734375 -1.484375 C 1.648438 -1.179688 1.539062 -0.867188 1.40625 -0.546875 L 2.453125 -0.59375 L 2.453125 0 L -0.078125 0 Z M 5.546875 -3.515625 L 4.59375 -6.109375 L 3.984375 -7.78125 L 3.953125 -7.78125 L 3.375 -6.25 L 2.640625 -4.1875 L 2.421875 -3.515625 Z M 5.546875 -3.515625 "/></g></g></g><g fill="#000000" fill-opacity="1"><g transform="translate(296.481356, 262.017552)"><g><path d="M 2.921875 -0.453125 C 3.304688 -0.460938 3.554688 -0.566406 3.671875 -0.765625 C 3.785156 -0.972656 3.84375 -1.285156 3.84375 -1.703125 L 3.84375 -2.125 L 3.859375 -3.671875 L 1.5 -7.40625 C 1.082031 -8.039062 0.835938 -8.550781 0.765625 -8.9375 L -0.078125 -8.90625 L -0.078125 -9.5 L 3.421875 -9.5 L 3.421875 -9.0625 C 2.710938 -9.0625 2.359375 -8.859375 2.359375 -8.453125 C 2.359375 -8.222656 2.472656 -7.929688 2.703125 -7.578125 L 3.125 -6.90625 C 3.695312 -5.96875 4.195312 -5.203125 4.625 -4.609375 L 4.65625 -4.609375 C 4.96875 -5.234375 5.453125 -6.160156 6.109375 -7.390625 L 6.390625 -7.921875 C 6.660156 -8.410156 6.878906 -8.753906 7.046875 -8.953125 L 5.96875 -8.90625 L 5.96875 -9.5 L 8.75 -9.5 L 8.75 -9.0625 C 8.320312 -9.03125 7.960938 -8.882812 7.671875 -8.625 C 7.390625 -8.363281 7.082031 -7.925781 6.75 -7.3125 L 5.03125 -4.078125 C 5.03125 -3.628906 5.023438 -3.15625 5.015625 -2.65625 C 5.015625 -2.164062 5.019531 -1.816406 5.03125 -1.609375 C 5.03125 -1.128906 5.015625 -0.773438 4.984375 -0.546875 L 6.109375 -0.59375 L 6.109375 0 L 2.921875 0 Z M 2.921875 -0.453125 "/></g></g></g></svg>